<svg xmlns="http://www.w3.org/2000/svg" viewBox="0 0 64 64" aria-hidden="true">
  <path fill="currentColor" d="M12 54.5c0-1.4 1.1-2.5 2.5-2.5h41c1.4 0 2.5 1.1 2.5 2.5S56.9 57 55.5 57h-41C13.1 57 12 55.9 12 54.5Z"/>
  <path fill="currentColor" d="M12 37.5c0-1.7 1.3-3 3-3h7c1.7 0 3 1.3 3 3V48H12V37.5Z"/>
  <path fill="currentColor" d="M28.5 29.5c0-1.7 1.3-3 3-3h7c1.7 0 3 1.3 3 3V48h-13V29.5Z"/>
  <path fill="currentColor" d="M45 22.5c0-1.7 1.3-3 3-3h7c1.7 0 3 1.3 3 3V48H45V22.5Z"/>
  <path fill="none" stroke="currentColor" stroke-linecap="round" stroke-linejoin="round" stroke-width="3.5" d="m9.5 29 11.2 3.2 11.8-9.7 12.2-8.1"/>
  <path fill="currentColor" d="M43.2 8.2 57.5 3 55.9 18.1l-4.5-5-5.5 3.7c-1.1.8-2.7.5-3.5-.7s-.5-2.7.7-3.5l5.4-3.6-5.3-.8Z"/>
</svg>
